{"title":"Living Colour - Time Tunnel 1990 (HQ VHS Rip)","uid":11414928,"size":1151353543,"categoryP":"video","categoryS":"music_videos","magnet":"?xt=urn:btih:cb6e900f2cbb1b25825c43d20ad7a68711c44774&amp;dn=Living+Colour+-+Time+Tunnel+1990+%28HQ+VHS+Rip%29&amp;tr=udp%3A%2F%2Ftracker.openbittorrent.com%3A80&amp;tr=udp%3A%2F%2Fopen.demonii.com%3A1337&amp;tr=udp%3A%2F%2Ftracker.coppersurfer.tk%3A6969&amp;tr=udp%3A%2F%2Fexodus.desync.com%3A6969","seeders":0,"leechers":1,"uploader":"NotHuman","files":-1,"time":1415562714,"description":"Living Colour\nTime Tunnel (1990)\nHigh Quality VHS Rip\n\nSource:\n\nOriginal VHS tape &gt; Mitsubishi HS-U748 VCR &gt; S-Video and composite RCA outputs &gt; Game Capture HD &gt; 480i MP4 &gt; HandBrake 0.9.9.5530 (deinterlacing and compression) &gt; 480p M4V\n\nNotes:\n\nThis is a high quality H.264 rip of Living Colour's long out of print Time Tunnel VHS, originally released in 1990.  It is a documentary chronicling the band's beginnings, their meteoric rise to fame in the late '80s through the recording of their Time's Up album.  Includes live footage, music videos, and band interviews.  This video is absolute gold for the Living Colour fan.  It includes some priceless footage of the band performing with the Rolling Stones when they opened for them on the Stones' 1989 Steel Wheels tour.\n\nThe source is a perfect original VHS tape played back through a Mitsubishi HS-U748 VCR, outputted to a Game Capture HD USB capture device using S-Video and compsite RCA outputs for the audio.\n\nScreenshots:\n &lt;a href=&quot;\nhttp://s2.postimg.org/bzlg3p16h/vlcsnap_2014_11_09_13h11m01s46.png&quot; rel=&quot;nofollow&quot; target=&quot;_NEW&quot;&gt;\nhttp://s2.postimg.org/bzlg3p16h/vlcsnap_2014_11_09_13h11m01s46.png&lt;/a&gt; &lt;a href=&quot;\nhttp://s2.postimg.org/n3529amgp/vlcsnap_2014_11_09_13h11m15s34.png&quot; rel=&quot;nofollow&quot; target=&quot;_NEW&quot;&gt;\nhttp://s2.postimg.org/n3529amgp/vlcsnap_2014_11_09_13h11m15s34.png&lt;/a&gt; &lt;a href=&quot;\nhttp://s2.postimg.org/x1q0vrvw9/vlcsnap_2014_11_09_13h12m13s131.png&quot; rel=&quot;nofollow&quot; target=&quot;_NEW&quot;&gt;\nhttp://s2.postimg.org/x1q0vrvw9/vlcsnap_2014_11_09_13h12m13s131.png&lt;/a&gt; &lt;a href=&quot;\nhttp://s2.postimg.org/5aewnofuh/vlcsnap_2014_11_09_13h13m43s22.png&quot; rel=&quot;nofollow&quot; target=&quot;_NEW&quot;&gt;\nhttp://s2.postimg.org/5aewnofuh/vlcsnap_2014_11_09_13h13m43s22.png&lt;/a&gt; &lt;a href=&quot;\nhttp://s2.postimg.org/7t5723qyh/vlcsnap_2014_11_09_13h14m09s33.png&quot; rel=&quot;nofollow&quot; target=&quot;_NEW&quot;&gt;\nhttp://s2.postimg.org/7t5723qyh/vlcsnap_2014_11_09_13h14m09s33.png&lt;/a&gt; &lt;a href=&quot;\nhttp://s2.postimg.org/n5oxw4q49/vlcsnap_2014_11_09_13h14m43s105.png&quot; rel=&quot;nofollow&quot; target=&quot;_NEW&quot;&gt;\nhttp://s2.postimg.org/n5oxw4q49/vlcsnap_2014_11_09_13h14m43s105.png&lt;/a&gt; &lt;a href=&quot;\nhttp://s2.postimg.org/4en0lyvjt/vlcsnap_2014_11_09_13h15m29s24.png&quot; rel=&quot;nofollow&quot; target=&quot;_NEW&quot;&gt;\nhttp://s2.postimg.org/4en0lyvjt/vlcsnap_2014_11_09_13h15m29s24.png&lt;/a&gt;\n\n\nMediaInfo data:\n\nGeneral\nComplete name                            : D:Game Capture HDLiving Colour - Time Tunnel.m4v\nFormat                                   : MPEG-4\nFormat profile                           : Base Media / Version 2\nCodec ID                                 : mp42\nFile size                                : 1.07 GiB\nDuration                                 : 58mn 44s\nOverall bit rate mode                    : Variable\nOverall bit rate                         : 2 605 Kbps\nMovie name                               : Time Tunnel\nDescription                              : Description here.\nRecorded date                            : 2014-11-08\nEncoded date                             : UTC 2014-11-08 19:07:15\nTagged date                              : UTC 2014-11-08 19:35:06\nWriting application                      : HandBrake 0.9.9 2013052900\n\nVideo\nID                                       : 1\nFormat                                   : AVC\nFormat/Info                              : Advanced Video Codec\nFormat profile                           : &lt;a class=&quot;__cf_email__&quot; href=&quot;/cdn-cgi/l/email-protection&quot; data-cfemail=&quot;b3fbdad4dbf3ff879d82&quot;&gt;[email&amp;#160;protected]&lt;/a&gt;&lt;script cf-hash='f9e31' type=&quot;text/javascript&quot;&gt;\n/* &lt;![CDATA[ */!function(){try{var t=&quot;currentScript&quot;in document?document.currentScript:function(){for(var t=document.getElementsByTagName(&quot;script&quot;),e=t.length;e--;)if(t[e].getAttribute(&quot;cf-hash&quot;))return t[e]}();if(t&amp;&amp;t.previousSibling){var e,r,n,i,c=t.previousSibling,a=c.getAttribute(&quot;data-cfemail&quot;);if(a){for(e=&quot;&quot;,r=parseInt(a.substr(0,2),16),n=2;a.length-n;n+=2)i=parseInt(a.substr(n,2),16)^r,e+=String.fromCharCode(i);e=document.createTextNode(e),c.parentNode.replaceChild(e,c)}}}catch(u){}}();/* ]]&gt; */&lt;/script&gt;\nFormat settings, CABAC                   : Yes\nFormat settings, ReFrames                : 5 frames\nCodec ID                                 : avc1\nCodec ID/Info                            : Advanced Video Coding\nDuration                                 : 58mn 44s\nBit rate                                 : 2 038 Kbps\nWidth                                    : 720 pixels\nHeight                                   : 490 pixels\nDisplay aspect ratio                     : 4:3\nFrame rate mode                          : Variable\nFrame rate                               : 29.970 fps\nMinimum frame rate                       : 9.990 fps\nMaximum frame rate                       : 29.970 fps\nColor space                              : YUV\nChroma subsampling                       : 4:2:0\nBit depth                                : 8 bits\nScan type                                : Progressive\nBits/(Pixel*Frame)                       : 0.193\nStream size                              : 856 MiB (78%)\nWriting library                          : x264 core 130 r2273 b3065e6\nEncoding settings                        : cabac=1 / ref=5 / deblock=1:0:0 / analyse=0x3:0x113 / me=umh / subme=8 / psy=1 / psy_rd=1.00:0.00 / mixed_ref=1 / me_range=16 / chroma_me=1 / trellis=1 / 8x8dct=1 / cqm=0 / deadzone=21,11 / fast_pskip=1 / chroma_qp_offset=-2 / threads=12 / lookahead_threads=2 / sliced_threads=0 / nr=0 / decimate=1 / interlaced=0 / bluray_compat=0 / constrained_intra=0 / bframes=3 / b_pyramid=2 / b_adapt=2 / b_bias=0 / direct=3 / weightb=1 / open_gop=0 / weightp=2 / keyint=600 / keyint_min=60 / scenecut=40 / intra_refresh=0 / rc_lookahead=50 / rc=crf / mbtree=1 / crf=20.0 / qcomp=0.60 / qpmin=0 / qpmax=69 / qpstep=4 / vbv_maxrate=62500 / vbv_bufsize=78125 / crf_max=0.0 / nal_hrd=none / ip_ratio=1.40 / aq=1:1.00\nEncoded date                             : UTC 2014-11-08 19:07:15\nTagged date                              : UTC 2014-11-08 19:35:06\nColor primaries                          : BT.601 NTSC\nTransfer characteristics                 : BT.709\nMatrix coefficients                      : BT.601\n\nAudio #1\nID                                       : 2\nFormat                                   : AAC\nFormat/Info                              : Advanced Audio Codec\nFormat profile                           : LC\nCodec ID                                 : 40\nDuration                                 : 58mn 44s\nBit rate mode                            : Variable\nBit rate                                 : 335 Kbps\nMaximum bit rate                         : 456 Kbps\nChannel(s)                               : 2 channels\nChannel positions                        : Front: L R\nSampling rate                            : 48.0 KHz\nCompression mode                         : Lossy\nStream size                              : 141 MiB (13%)\nLanguage                                 : English\nEncoded date                             : UTC 2014-11-08 19:07:15\nTagged date                              : UTC 2014-11-08 19:35:05\n\nAudio #2\nID                                       : 3\nFormat                                   : AC-3\nFormat/Info                              : Audio Coding 3\nMode extension                           : CM (complete main)\nFormat settings, Endianness              : Big\nCodec ID                                 : ac-3\nDuration                                 : 58mn 44s\nBit rate mode                            : Constant\nBit rate                                 : 224 Kbps\nChannel(s)                               : 2 channels\nChannel positions                        : Front: L R\nSampling rate                            : 48.0 KHz\nBit depth                                : 16 bits\nCompression mode                         : Lossy\nStream size                              : 94.1 MiB (9%)\nLanguage                                 : English\nEncoded date                             : UTC 2014-11-08 19:07:15\nTagged date                              : UTC 2014-11-08 19:35:05","torrent":{"xt":"urn:btih:cb6e900f2cbb1b25825c43d20ad7a68711c44774","amp;dn":"Living+Colour+-+Time+Tunnel+1990+%28HQ+VHS+Rip%29","amp;tr":["udp%3A%2F%2Ftracker.openbittorrent.com%3A80","udp%3A%2F%2Fopen.demonii.com%3A1337","udp%3A%2F%2Ftracker.coppersurfer.tk%3A6969","udp%3A%2F%2Fexodus.desync.com%3A6969"],"infoHash":"cb6e900f2cbb1b25825c43d20ad7a68711c44774","infoHashBuffer":{"type":"Buffer","data":[203,110,144,15,44,187,27,37,130,92,67,210,10,215,166,135,17,196,71,116]},"announce":[],"urlList":[]}}